<mxfile host="app.diagrams.net" modified="2021-11-14T12:01:26.319Z" agent="5.0 (X11; Linux x86_64) AppleWebKit/537.36 (KHTML, like Gecko) Chrome/95.0.4638.69 Safari/537.36" etag="kY5wd5Nb1R0Wy7f9hw7J" version="15.7.3" type="github">
  <diagram id="R2lEEEUBdFMjLlhIrx00" name="Page-1">
    <mxGraphModel dx="1704" dy="1379" grid="1" gridSize="15" guides="1" tooltips="1" connect="1" arrows="1" fold="1" page="0" pageScale="1" pageWidth="850" pageHeight="1100" math="0" shadow="0" extFonts="Permanent Marker^https://fonts.googleapis.com/css?family=Permanent+Marker">
      <root>
        <mxCell id="0" />
        <mxCell id="1" parent="0" />
        <mxCell id="ECpv_SO4cA7GXi2VKjZA-2" value="Id" style="ellipse;whiteSpace=wrap;html=1;" vertex="1" parent="1">
          <mxGeometry x="210" y="30" width="120" height="80" as="geometry" />
        </mxCell>
        <mxCell id="ECpv_SO4cA7GXi2VKjZA-4" value="DOB" style="ellipse;whiteSpace=wrap;html=1;" vertex="1" parent="1">
          <mxGeometry x="410" y="70" width="120" height="80" as="geometry" />
        </mxCell>
        <mxCell id="ECpv_SO4cA7GXi2VKjZA-5" value="Rank" style="ellipse;whiteSpace=wrap;html=1;" vertex="1" parent="1">
          <mxGeometry x="440" y="180" width="120" height="80" as="geometry" />
        </mxCell>
        <mxCell id="ECpv_SO4cA7GXi2VKjZA-6" value="Name" style="ellipse;whiteSpace=wrap;html=1;" vertex="1" parent="1">
          <mxGeometry x="400" y="300" width="120" height="80" as="geometry" />
        </mxCell>
        <mxCell id="ECpv_SO4cA7GXi2VKjZA-7" value="Age" style="ellipse;whiteSpace=wrap;html=1;dashed=1;" vertex="1" parent="1">
          <mxGeometry x="-40" y="30" width="120" height="80" as="geometry" />
        </mxCell>
        <mxCell id="ECpv_SO4cA7GXi2VKjZA-9" value="Retirement_date" style="ellipse;whiteSpace=wrap;html=1;dashed=1;" vertex="1" parent="1">
          <mxGeometry x="-60" y="170" width="120" height="80" as="geometry" />
        </mxCell>
        <mxCell id="ECpv_SO4cA7GXi2VKjZA-13" value="" style="edgeStyle=orthogonalEdgeStyle;rounded=0;orthogonalLoop=1;jettySize=auto;html=1;" edge="1" parent="1" source="ECpv_SO4cA7GXi2VKjZA-11" target="ECpv_SO4cA7GXi2VKjZA-5">
          <mxGeometry relative="1" as="geometry" />
        </mxCell>
        <mxCell id="ECpv_SO4cA7GXi2VKjZA-84" style="edgeStyle=none;rounded=0;orthogonalLoop=1;jettySize=auto;html=1;exitX=1;exitY=0;exitDx=0;exitDy=0;endArrow=none;endFill=0;" edge="1" parent="1" source="ECpv_SO4cA7GXi2VKjZA-11" target="ECpv_SO4cA7GXi2VKjZA-73">
          <mxGeometry relative="1" as="geometry" />
        </mxCell>
        <mxCell id="ECpv_SO4cA7GXi2VKjZA-11" value="Professor" style="rounded=0;whiteSpace=wrap;html=1;" vertex="1" parent="1">
          <mxGeometry x="150" y="165" width="120" height="60" as="geometry" />
        </mxCell>
        <mxCell id="ECpv_SO4cA7GXi2VKjZA-12" value="" style="endArrow=classic;html=1;rounded=0;exitX=0;exitY=0;exitDx=0;exitDy=0;entryX=1;entryY=1;entryDx=0;entryDy=0;" edge="1" parent="1" source="ECpv_SO4cA7GXi2VKjZA-11" target="ECpv_SO4cA7GXi2VKjZA-7">
          <mxGeometry width="50" height="50" relative="1" as="geometry">
            <mxPoint x="280" y="360" as="sourcePoint" />
            <mxPoint x="330" y="310" as="targetPoint" />
          </mxGeometry>
        </mxCell>
        <mxCell id="ECpv_SO4cA7GXi2VKjZA-14" value="" style="endArrow=classic;html=1;rounded=0;" edge="1" parent="1" source="ECpv_SO4cA7GXi2VKjZA-11" target="ECpv_SO4cA7GXi2VKjZA-6">
          <mxGeometry width="50" height="50" relative="1" as="geometry">
            <mxPoint x="400" y="320" as="sourcePoint" />
            <mxPoint x="450" y="270" as="targetPoint" />
          </mxGeometry>
        </mxCell>
        <mxCell id="ECpv_SO4cA7GXi2VKjZA-15" value="" style="endArrow=classic;html=1;rounded=0;entryX=0.5;entryY=1;entryDx=0;entryDy=0;" edge="1" parent="1" source="ECpv_SO4cA7GXi2VKjZA-11" target="ECpv_SO4cA7GXi2VKjZA-2">
          <mxGeometry width="50" height="50" relative="1" as="geometry">
            <mxPoint x="270" y="179.28932188134524" as="sourcePoint" />
            <mxPoint x="270" y="129.28932188134524" as="targetPoint" />
          </mxGeometry>
        </mxCell>
        <mxCell id="ECpv_SO4cA7GXi2VKjZA-18" value="" style="endArrow=classic;html=1;rounded=0;exitX=-0.025;exitY=0.65;exitDx=0;exitDy=0;exitPerimeter=0;" edge="1" parent="1" source="ECpv_SO4cA7GXi2VKjZA-11" target="ECpv_SO4cA7GXi2VKjZA-9">
          <mxGeometry width="50" height="50" relative="1" as="geometry">
            <mxPoint x="360" y="210" as="sourcePoint" />
            <mxPoint x="410" y="160" as="targetPoint" />
          </mxGeometry>
        </mxCell>
        <mxCell id="ECpv_SO4cA7GXi2VKjZA-19" value="" style="endArrow=classic;html=1;rounded=0;entryX=0.242;entryY=0.925;entryDx=0;entryDy=0;entryPerimeter=0;" edge="1" parent="1" source="ECpv_SO4cA7GXi2VKjZA-11" target="ECpv_SO4cA7GXi2VKjZA-4">
          <mxGeometry width="50" height="50" relative="1" as="geometry">
            <mxPoint x="360" y="210" as="sourcePoint" />
            <mxPoint x="410" y="160" as="targetPoint" />
          </mxGeometry>
        </mxCell>
        <mxCell id="ECpv_SO4cA7GXi2VKjZA-83" style="edgeStyle=none;rounded=0;orthogonalLoop=1;jettySize=auto;html=1;endArrow=none;endFill=0;entryX=0.25;entryY=1;entryDx=0;entryDy=0;" edge="1" parent="1" source="ECpv_SO4cA7GXi2VKjZA-20" target="ECpv_SO4cA7GXi2VKjZA-11">
          <mxGeometry relative="1" as="geometry">
            <mxPoint x="210" y="239.99999999999977" as="targetPoint" />
          </mxGeometry>
        </mxCell>
        <mxCell id="ECpv_SO4cA7GXi2VKjZA-20" value="Speciality" style="ellipse;shape=doubleEllipse;whiteSpace=wrap;html=1;" vertex="1" parent="1">
          <mxGeometry x="80" y="340" width="100" height="60" as="geometry" />
        </mxCell>
        <mxCell id="ECpv_SO4cA7GXi2VKjZA-21" value="Undergraduate_student" style="rounded=0;whiteSpace=wrap;html=1;" vertex="1" parent="1">
          <mxGeometry x="855" y="80" width="165" height="60" as="geometry" />
        </mxCell>
        <mxCell id="ECpv_SO4cA7GXi2VKjZA-34" style="edgeStyle=orthogonalEdgeStyle;rounded=0;orthogonalLoop=1;jettySize=auto;html=1;exitX=0.5;exitY=1;exitDx=0;exitDy=0;" edge="1" parent="1" source="ECpv_SO4cA7GXi2VKjZA-22" target="ECpv_SO4cA7GXi2VKjZA-21">
          <mxGeometry relative="1" as="geometry" />
        </mxCell>
        <mxCell id="ECpv_SO4cA7GXi2VKjZA-22" value="NIC" style="ellipse;whiteSpace=wrap;html=1;" vertex="1" parent="1">
          <mxGeometry x="810" y="-50" width="120" height="80" as="geometry" />
        </mxCell>
        <mxCell id="ECpv_SO4cA7GXi2VKjZA-35" style="edgeStyle=orthogonalEdgeStyle;rounded=0;orthogonalLoop=1;jettySize=auto;html=1;entryX=1;entryY=0.5;entryDx=0;entryDy=0;" edge="1" parent="1" source="ECpv_SO4cA7GXi2VKjZA-23" target="ECpv_SO4cA7GXi2VKjZA-21">
          <mxGeometry relative="1" as="geometry" />
        </mxCell>
        <mxCell id="ECpv_SO4cA7GXi2VKjZA-23" value="Degree_programme" style="ellipse;whiteSpace=wrap;html=1;" vertex="1" parent="1">
          <mxGeometry x="1005" y="165" width="120" height="80" as="geometry" />
        </mxCell>
        <mxCell id="ECpv_SO4cA7GXi2VKjZA-32" style="edgeStyle=orthogonalEdgeStyle;rounded=0;orthogonalLoop=1;jettySize=auto;html=1;exitX=0;exitY=0;exitDx=0;exitDy=0;" edge="1" parent="1" source="ECpv_SO4cA7GXi2VKjZA-24" target="ECpv_SO4cA7GXi2VKjZA-21">
          <mxGeometry relative="1" as="geometry" />
        </mxCell>
        <mxCell id="ECpv_SO4cA7GXi2VKjZA-24" value="Age" style="ellipse;whiteSpace=wrap;html=1;" vertex="1" parent="1">
          <mxGeometry x="810" y="170" width="120" height="80" as="geometry" />
        </mxCell>
        <mxCell id="ECpv_SO4cA7GXi2VKjZA-33" style="edgeStyle=orthogonalEdgeStyle;rounded=0;orthogonalLoop=1;jettySize=auto;html=1;exitX=1;exitY=0.5;exitDx=0;exitDy=0;entryX=0;entryY=0.5;entryDx=0;entryDy=0;" edge="1" parent="1" source="ECpv_SO4cA7GXi2VKjZA-25" target="ECpv_SO4cA7GXi2VKjZA-21">
          <mxGeometry relative="1" as="geometry" />
        </mxCell>
        <mxCell id="ECpv_SO4cA7GXi2VKjZA-25" value="Name" style="ellipse;whiteSpace=wrap;html=1;" vertex="1" parent="1">
          <mxGeometry x="690" y="60" width="120" height="80" as="geometry" />
        </mxCell>
        <mxCell id="ECpv_SO4cA7GXi2VKjZA-29" style="edgeStyle=orthogonalEdgeStyle;rounded=0;orthogonalLoop=1;jettySize=auto;html=1;entryX=0;entryY=1;entryDx=0;entryDy=0;" edge="1" parent="1" source="ECpv_SO4cA7GXi2VKjZA-26" target="ECpv_SO4cA7GXi2VKjZA-25">
          <mxGeometry relative="1" as="geometry" />
        </mxCell>
        <mxCell id="ECpv_SO4cA7GXi2VKjZA-26" value="FName" style="ellipse;whiteSpace=wrap;html=1;" vertex="1" parent="1">
          <mxGeometry x="585" y="105" width="75" height="60" as="geometry" />
        </mxCell>
        <mxCell id="ECpv_SO4cA7GXi2VKjZA-30" style="edgeStyle=orthogonalEdgeStyle;rounded=0;orthogonalLoop=1;jettySize=auto;html=1;" edge="1" parent="1" source="ECpv_SO4cA7GXi2VKjZA-27">
          <mxGeometry relative="1" as="geometry">
            <mxPoint x="735" y="150" as="targetPoint" />
          </mxGeometry>
        </mxCell>
        <mxCell id="ECpv_SO4cA7GXi2VKjZA-27" value="MName" style="ellipse;whiteSpace=wrap;html=1;" vertex="1" parent="1">
          <mxGeometry x="615" y="175" width="75" height="60" as="geometry" />
        </mxCell>
        <mxCell id="ECpv_SO4cA7GXi2VKjZA-31" style="edgeStyle=orthogonalEdgeStyle;rounded=0;orthogonalLoop=1;jettySize=auto;html=1;entryX=0.5;entryY=1;entryDx=0;entryDy=0;" edge="1" parent="1" source="ECpv_SO4cA7GXi2VKjZA-28" target="ECpv_SO4cA7GXi2VKjZA-25">
          <mxGeometry relative="1" as="geometry" />
        </mxCell>
        <mxCell id="ECpv_SO4cA7GXi2VKjZA-28" value="LName" style="ellipse;whiteSpace=wrap;html=1;" vertex="1" parent="1">
          <mxGeometry x="712.5" y="245" width="75" height="60" as="geometry" />
        </mxCell>
        <mxCell id="ECpv_SO4cA7GXi2VKjZA-36" value="Project" style="rounded=0;whiteSpace=wrap;html=1;" vertex="1" parent="1">
          <mxGeometry x="465" y="525" width="120" height="60" as="geometry" />
        </mxCell>
        <mxCell id="ECpv_SO4cA7GXi2VKjZA-50" style="edgeStyle=orthogonalEdgeStyle;rounded=0;orthogonalLoop=1;jettySize=auto;html=1;entryX=0;entryY=0.75;entryDx=0;entryDy=0;endArrow=classic;endFill=1;" edge="1" parent="1" source="ECpv_SO4cA7GXi2VKjZA-37" target="ECpv_SO4cA7GXi2VKjZA-36">
          <mxGeometry relative="1" as="geometry" />
        </mxCell>
        <mxCell id="ECpv_SO4cA7GXi2VKjZA-37" value="id" style="ellipse;whiteSpace=wrap;html=1;" vertex="1" parent="1">
          <mxGeometry x="195" y="550" width="120" height="80" as="geometry" />
        </mxCell>
        <mxCell id="ECpv_SO4cA7GXi2VKjZA-54" style="edgeStyle=orthogonalEdgeStyle;rounded=0;orthogonalLoop=1;jettySize=auto;html=1;entryX=1;entryY=0.25;entryDx=0;entryDy=0;endArrow=classic;endFill=1;" edge="1" parent="1" source="ECpv_SO4cA7GXi2VKjZA-38" target="ECpv_SO4cA7GXi2VKjZA-36">
          <mxGeometry relative="1" as="geometry" />
        </mxCell>
        <mxCell id="ECpv_SO4cA7GXi2VKjZA-38" value="" style="ellipse;whiteSpace=wrap;html=1;" vertex="1" parent="1">
          <mxGeometry x="690" y="490" width="120" height="80" as="geometry" />
        </mxCell>
        <mxCell id="ECpv_SO4cA7GXi2VKjZA-51" style="edgeStyle=orthogonalEdgeStyle;rounded=0;orthogonalLoop=1;jettySize=auto;html=1;endArrow=classic;endFill=1;" edge="1" parent="1" source="ECpv_SO4cA7GXi2VKjZA-39" target="ECpv_SO4cA7GXi2VKjZA-36">
          <mxGeometry relative="1" as="geometry">
            <mxPoint x="465" y="600" as="targetPoint" />
          </mxGeometry>
        </mxCell>
        <mxCell id="ECpv_SO4cA7GXi2VKjZA-39" value="" style="ellipse;whiteSpace=wrap;html=1;" vertex="1" parent="1">
          <mxGeometry x="290" y="675" width="120" height="80" as="geometry" />
        </mxCell>
        <mxCell id="ECpv_SO4cA7GXi2VKjZA-52" style="edgeStyle=orthogonalEdgeStyle;rounded=0;orthogonalLoop=1;jettySize=auto;html=1;endArrow=classic;endFill=1;" edge="1" parent="1" source="ECpv_SO4cA7GXi2VKjZA-40">
          <mxGeometry relative="1" as="geometry">
            <mxPoint x="540" y="585" as="targetPoint" />
          </mxGeometry>
        </mxCell>
        <mxCell id="ECpv_SO4cA7GXi2VKjZA-40" value="" style="ellipse;whiteSpace=wrap;html=1;" vertex="1" parent="1">
          <mxGeometry x="495" y="750" width="120" height="80" as="geometry" />
        </mxCell>
        <mxCell id="ECpv_SO4cA7GXi2VKjZA-53" style="edgeStyle=orthogonalEdgeStyle;rounded=0;orthogonalLoop=1;jettySize=auto;html=1;entryX=0.875;entryY=1;entryDx=0;entryDy=0;entryPerimeter=0;endArrow=classic;endFill=1;" edge="1" parent="1" source="ECpv_SO4cA7GXi2VKjZA-41" target="ECpv_SO4cA7GXi2VKjZA-36">
          <mxGeometry relative="1" as="geometry" />
        </mxCell>
        <mxCell id="ECpv_SO4cA7GXi2VKjZA-41" value="" style="ellipse;whiteSpace=wrap;html=1;" vertex="1" parent="1">
          <mxGeometry x="660" y="630" width="120" height="80" as="geometry" />
        </mxCell>
        <mxCell id="ECpv_SO4cA7GXi2VKjZA-60" style="edgeStyle=orthogonalEdgeStyle;rounded=0;orthogonalLoop=1;jettySize=auto;html=1;entryX=0.583;entryY=0.983;entryDx=0;entryDy=0;entryPerimeter=0;endArrow=none;endFill=0;" edge="1" parent="1" source="ECpv_SO4cA7GXi2VKjZA-44" target="ECpv_SO4cA7GXi2VKjZA-11">
          <mxGeometry relative="1" as="geometry" />
        </mxCell>
        <mxCell id="ECpv_SO4cA7GXi2VKjZA-61" style="edgeStyle=orthogonalEdgeStyle;rounded=0;orthogonalLoop=1;jettySize=auto;html=1;entryX=0.25;entryY=0;entryDx=0;entryDy=0;endArrow=none;endFill=0;" edge="1" parent="1" source="ECpv_SO4cA7GXi2VKjZA-44" target="ECpv_SO4cA7GXi2VKjZA-36">
          <mxGeometry relative="1" as="geometry" />
        </mxCell>
        <mxCell id="ECpv_SO4cA7GXi2VKjZA-44" value="Relationship" style="shape=rhombus;perimeter=rhombusPerimeter;whiteSpace=wrap;html=1;align=center;" vertex="1" parent="1">
          <mxGeometry x="290" y="450" width="120" height="60" as="geometry" />
        </mxCell>
        <mxCell id="ECpv_SO4cA7GXi2VKjZA-46" value="" style="endArrow=none;html=1;rounded=0;" edge="1" parent="1">
          <mxGeometry relative="1" as="geometry">
            <mxPoint x="465" y="585" as="sourcePoint" />
            <mxPoint x="625" y="585" as="targetPoint" />
          </mxGeometry>
        </mxCell>
        <mxCell id="ECpv_SO4cA7GXi2VKjZA-48" value="" style="endArrow=none;html=1;rounded=0;" edge="1" parent="1">
          <mxGeometry relative="1" as="geometry">
            <mxPoint x="465" y="585" as="sourcePoint" />
            <mxPoint x="625" y="585" as="targetPoint" />
          </mxGeometry>
        </mxCell>
        <mxCell id="ECpv_SO4cA7GXi2VKjZA-56" style="edgeStyle=orthogonalEdgeStyle;rounded=0;orthogonalLoop=1;jettySize=auto;html=1;entryX=0.636;entryY=0.917;entryDx=0;entryDy=0;entryPerimeter=0;endArrow=none;endFill=0;" edge="1" parent="1" source="ECpv_SO4cA7GXi2VKjZA-55" target="ECpv_SO4cA7GXi2VKjZA-21">
          <mxGeometry relative="1" as="geometry" />
        </mxCell>
        <mxCell id="ECpv_SO4cA7GXi2VKjZA-57" style="edgeStyle=orthogonalEdgeStyle;rounded=0;orthogonalLoop=1;jettySize=auto;html=1;endArrow=none;endFill=0;" edge="1" parent="1" source="ECpv_SO4cA7GXi2VKjZA-55" target="ECpv_SO4cA7GXi2VKjZA-36">
          <mxGeometry relative="1" as="geometry" />
        </mxCell>
        <mxCell id="ECpv_SO4cA7GXi2VKjZA-55" value="research_assistant" style="shape=rhombus;perimeter=rhombusPerimeter;whiteSpace=wrap;html=1;align=center;" vertex="1" parent="1">
          <mxGeometry x="840" y="375" width="135" height="60" as="geometry" />
        </mxCell>
        <mxCell id="ECpv_SO4cA7GXi2VKjZA-58" value="M" style="text;html=1;align=center;verticalAlign=middle;resizable=0;points=[];autosize=1;strokeColor=none;fillColor=none;" vertex="1" parent="1">
          <mxGeometry x="680" y="378" width="30" height="15" as="geometry" />
        </mxCell>
        <mxCell id="ECpv_SO4cA7GXi2VKjZA-59" value="1" style="text;html=1;align=center;verticalAlign=middle;resizable=0;points=[];autosize=1;strokeColor=none;fillColor=none;" vertex="1" parent="1">
          <mxGeometry x="920" y="318" width="30" height="15" as="geometry" />
        </mxCell>
        <mxCell id="ECpv_SO4cA7GXi2VKjZA-62" value="1" style="text;html=1;align=center;verticalAlign=middle;resizable=0;points=[];autosize=1;strokeColor=none;fillColor=none;" vertex="1" parent="1">
          <mxGeometry x="290" y="378" width="30" height="15" as="geometry" />
        </mxCell>
        <mxCell id="ECpv_SO4cA7GXi2VKjZA-63" value="M" style="text;html=1;align=center;verticalAlign=middle;resizable=0;points=[];autosize=1;strokeColor=none;fillColor=none;" vertex="1" parent="1">
          <mxGeometry x="455" y="453" width="30" height="15" as="geometry" />
        </mxCell>
        <mxCell id="ECpv_SO4cA7GXi2VKjZA-64" value="Department" style="whiteSpace=wrap;html=1;align=center;" vertex="1" parent="1">
          <mxGeometry x="530" y="-300" width="100" height="40" as="geometry" />
        </mxCell>
        <mxCell id="ECpv_SO4cA7GXi2VKjZA-70" style="edgeStyle=orthogonalEdgeStyle;rounded=0;orthogonalLoop=1;jettySize=auto;html=1;endArrow=none;endFill=0;" edge="1" parent="1" source="ECpv_SO4cA7GXi2VKjZA-65" target="ECpv_SO4cA7GXi2VKjZA-64">
          <mxGeometry relative="1" as="geometry" />
        </mxCell>
        <mxCell id="ECpv_SO4cA7GXi2VKjZA-65" value="Dep_no" style="ellipse;whiteSpace=wrap;html=1;" vertex="1" parent="1">
          <mxGeometry x="335" y="-405" width="120" height="80" as="geometry" />
        </mxCell>
        <mxCell id="ECpv_SO4cA7GXi2VKjZA-71" style="edgeStyle=orthogonalEdgeStyle;rounded=0;orthogonalLoop=1;jettySize=auto;html=1;entryX=1;entryY=0.25;entryDx=0;entryDy=0;endArrow=none;endFill=0;" edge="1" parent="1" source="ECpv_SO4cA7GXi2VKjZA-67" target="ECpv_SO4cA7GXi2VKjZA-64">
          <mxGeometry relative="1" as="geometry" />
        </mxCell>
        <mxCell id="ECpv_SO4cA7GXi2VKjZA-67" value="Main_Offiece" style="ellipse;whiteSpace=wrap;html=1;" vertex="1" parent="1">
          <mxGeometry x="615" y="-450" width="120" height="80" as="geometry" />
        </mxCell>
        <mxCell id="ECpv_SO4cA7GXi2VKjZA-72" style="edgeStyle=orthogonalEdgeStyle;rounded=0;orthogonalLoop=1;jettySize=auto;html=1;endArrow=none;endFill=0;" edge="1" parent="1" source="ECpv_SO4cA7GXi2VKjZA-68" target="ECpv_SO4cA7GXi2VKjZA-64">
          <mxGeometry relative="1" as="geometry" />
        </mxCell>
        <mxCell id="ECpv_SO4cA7GXi2VKjZA-68" value="Dep_name" style="ellipse;whiteSpace=wrap;html=1;" vertex="1" parent="1">
          <mxGeometry x="375" y="-285" width="120" height="80" as="geometry" />
        </mxCell>
        <mxCell id="ECpv_SO4cA7GXi2VKjZA-75" style="edgeStyle=none;rounded=0;orthogonalLoop=1;jettySize=auto;html=1;entryX=0.5;entryY=1;entryDx=0;entryDy=0;endArrow=none;endFill=0;" edge="1" parent="1" source="ECpv_SO4cA7GXi2VKjZA-73" target="ECpv_SO4cA7GXi2VKjZA-64">
          <mxGeometry relative="1" as="geometry" />
        </mxCell>
        <mxCell id="ECpv_SO4cA7GXi2VKjZA-73" value="Wroks_on" style="shape=rhombus;perimeter=rhombusPerimeter;whiteSpace=wrap;html=1;align=center;" vertex="1" parent="1">
          <mxGeometry x="480" y="-120" width="120" height="60" as="geometry" />
        </mxCell>
        <mxCell id="ECpv_SO4cA7GXi2VKjZA-76" value="N" style="text;html=1;align=center;verticalAlign=middle;resizable=0;points=[];autosize=1;strokeColor=none;fillColor=none;" vertex="1" parent="1">
          <mxGeometry x="410" y="3" width="30" height="15" as="geometry" />
        </mxCell>
        <mxCell id="ECpv_SO4cA7GXi2VKjZA-77" value="1" style="text;html=1;align=center;verticalAlign=middle;resizable=0;points=[];autosize=1;strokeColor=none;fillColor=none;" vertex="1" parent="1">
          <mxGeometry x="575" y="-192" width="30" height="15" as="geometry" />
        </mxCell>
        <mxCell id="ECpv_SO4cA7GXi2VKjZA-79" style="edgeStyle=none;rounded=0;orthogonalLoop=1;jettySize=auto;html=1;entryX=0.848;entryY=-0.067;entryDx=0;entryDy=0;entryPerimeter=0;endArrow=none;endFill=0;" edge="1" parent="1" source="ECpv_SO4cA7GXi2VKjZA-78" target="ECpv_SO4cA7GXi2VKjZA-21">
          <mxGeometry relative="1" as="geometry" />
        </mxCell>
        <mxCell id="ECpv_SO4cA7GXi2VKjZA-80" style="edgeStyle=none;rounded=0;orthogonalLoop=1;jettySize=auto;html=1;entryX=1;entryY=0.75;entryDx=0;entryDy=0;endArrow=none;endFill=0;" edge="1" parent="1" source="ECpv_SO4cA7GXi2VKjZA-78" target="ECpv_SO4cA7GXi2VKjZA-64">
          <mxGeometry relative="1" as="geometry" />
        </mxCell>
        <mxCell id="ECpv_SO4cA7GXi2VKjZA-78" value="Major_department" style="shape=rhombus;perimeter=rhombusPerimeter;whiteSpace=wrap;html=1;align=center;" vertex="1" parent="1">
          <mxGeometry x="920" y="-214" width="120" height="60" as="geometry" />
        </mxCell>
        <mxCell id="ECpv_SO4cA7GXi2VKjZA-81" value="1" style="text;html=1;align=center;verticalAlign=middle;resizable=0;points=[];autosize=1;strokeColor=none;fillColor=none;" vertex="1" parent="1">
          <mxGeometry x="755" y="-267" width="30" height="15" as="geometry" />
        </mxCell>
        <mxCell id="ECpv_SO4cA7GXi2VKjZA-82" value="1" style="text;html=1;align=center;verticalAlign=middle;resizable=0;points=[];autosize=1;strokeColor=none;fillColor=none;" vertex="1" parent="1">
          <mxGeometry x="980" y="-57" width="30" height="15" as="geometry" />
        </mxCell>
      </root>
    </mxGraphModel>
  </diagram>
</mxfile>
